<?xml version="1.0" encoding="utf-8"?>
<!-- Generator: Adobe Illustrator 16.0.4, SVG Export Plug-In . SVG Version: 6.00 Build 0)  -->
<!DOCTYPE svg PUBLIC "-//W3C//DTD SVG 1.1//EN" "http://www.w3.org/Graphics/SVG/1.1/DTD/svg11.dtd">
<svg version="1.1" id="Layer_1" xmlns="http://www.w3.org/2000/svg" xmlns:xlink="http://www.w3.org/1999/xlink" x="0px" y="0px"
	 width="841.889px" height="595.281px" viewBox="0 0 841.889 595.281" enable-background="new 0 0 841.889 595.281"
	 xml:space="preserve">
<path fill="#005EB8" d="M559.769,166.745c-73.477-73.479-192.61-73.479-266.089,0l-17.296,17.295l10.666-50.177
	c2.916-13.724-5.191-26.206-18.914-29.124c-13.727-2.919-26.209,5.19-29.126,18.913L211.33,253.872
	c-1.877,8.834,0.818,17.148,6.632,22.733c5.585,5.743,13.853,8.395,22.633,6.528l130.22-27.679
	c13.723-2.918,21.83-15.4,18.914-29.123c-2.916-13.728-15.402-21.832-29.125-18.917l-48.417,10.292l15.993-15.993
	c54.25-54.252,142.209-54.252,196.46-0.001c54.25,54.25,54.25,142.212,0,196.463c-33.037,33.039-80.459,44.074-123.601,36.546
	c-42.632-8.823-80.99-36.384-99.304-73.827l0.051,0.104c-6.141-12.553-20.16-17.361-32.711-11.222
	c-12.553,6.141-17.362,20.16-11.221,32.711c9.113,18.63,20.903,35.074,34.669,49.112c0.371,0.419,0.751,0.834,1.155,1.237
	c28.93,28.931,64.939,46.462,102.452,52.61c0.642,0.107,1.285,0.202,1.928,0.302c0.663,0.102,1.326,0.209,1.99,0.304
	c36.153,5.24,74.207,0.037,109.497-17.227l-0.016-0.032c18.143-8.891,35.154-20.872,50.238-35.957
	C633.247,359.358,633.247,240.223,559.769,166.745z"/>
</svg>
